# xmcd
#
# Track frame offsets:
#	150
#	15582
#	33834
#	49703
#	64655
#	83565
#	104015
#	120198
#	146514
#	164488
#	183102
#	202931
#	224596
#	246727
#	262453
#	293876
#	312388
#
# Disc length: 4413 seconds
#
# Revision: 1
# Processed by: cddbd v1.5.1PL0 Copyright (c) Steve Scherf et al.
# Submitted via: EasyCDDAExtractor 5.0.7
#
DISCID=fb113b11
DTITLE=Barry White - The Ultimate Collection
DYEAR=1999
DGENRE=Blues
TTITLE0=You're The First The Last My Everything
TTITLE1=Can't Get Enough Of Your Love Babe
TTITLE2=Let The Music Play
TTITLE3=Don't Make Me Wait Too Long
TTITLE4=I'll Do For You Anything You Want Me To
TTITLE5=Sho' You Right
TTITLE6=What Am I Gonna Do With You
TTITLE7=Come On
TTITLE8=I'm Gonna Love You Just A Little More Babe
TTITLE9=Never Never Gonna Give You Up
TTITLE10=Baby We Better Try And Get It Together
TTITLE11=Just The Way You Are
TTITLE12=Dark And Lovely (You Over There) Radio Edit
TTITLE13=You See The Trouble With Me
TTITLE14=It's Ecstasy When You Lay Down Next To Me
TTITLE15=The Right Night
TTITLE16=Love's Theme
EXTD=
EXTT0=
EXTT1=
EXTT2=
EXTT3=
EXTT4=
EXTT5=
EXTT6=
EXTT7=
EXTT8=
EXTT9=
EXTT10=
EXTT11=
EXTT12=
EXTT13=
EXTT14=
EXTT15=
EXTT16=
PLAYORDER=
